# xmcd
#
# Track frame offsets:
#	150
#	15175
#	26017
#	40372
#	56125
#	74787
#	85742
#	103195
#	118197
#	134232
#	147890
#	162510
#	177445
#	190245
#	203307
#	214052
#	226877
#	241570
#
# Disc length: 3401 seconds
#
# Revision: 2
# Processed by: cddbd v1.5.1PL2 Copyright (c) Steve Scherf et al.
# Submitted via: audiograbber 1.83.01
#
DISCID=030d4712
DTITLE=Collection - Modernoi Rythmoi 2 [CD 8)
DYEAR=1999
DGENRE=Oldies
TTITLE0=Pasxalis - Ourane pou Pernas
TTITLE1=Kostas Tournas - O Hronos o Kalyteros
TTITLE2=The Olympians - Syggnomi
TTITLE3=Vicky Leandros - Kouto Paidi (Ich male herzen an die wand)
TTITLE4=Pasxalis - I Syntrofia mas (Jesus)
TTITLE5=Poll - O Geros
TTITLE6=Lida Kai Spyros - Ela na Deis ton Topo mou 
TTITLE7=Elpida - Etsi Apla s' Agapo
TTITLE8=Demis Roussos - We Shall Dance
TTITLE9=Pasxalis,Toli ,Williams,Argyraki - I Love, I Love, Ilove You 
TTITLE10=Socrates Drank The Conium - Kleis' ta Matia sou kai Akou
TTITLE11=Poll - Den Tha 'sai Martys
TTITLE12=Kleio Denardou - Ena Agori gia Party (La,la,la)
TTITLE13=Mairy Alexopoulou - Oi Koukles
TTITLE14=Rena Pagkrati - Agapo Enan Kazanova (Casanova)
TTITLE15=Ricardo Credi - Siga Siga (Non et Non)
TTITLE16=Mikaello - Panta Esy
TTITLE17=Foinikes - Loipon Teleiose
EXTD=
EXTT0=
EXTT1=
EXTT2=
EXTT3=
EXTT4=
EXTT5=
EXTT6=
EXTT7=
EXTT8=
EXTT9=
EXTT10=
EXTT11=
EXTT12=
EXTT13=
EXTT14=
EXTT15=
EXTT16=
EXTT17=
PLAYORDER=
